<svg width="50" height="50" viewBox="0 0 50 50" fill="none" xmlns="http://www.w3.org/2000/svg">
<g clip-path="url(#clip0_58_1605)">
<path d="M50 25C50 20.0555 48.5338 15.222 45.7867 11.1107C43.0397 6.99952 39.1352 3.79521 34.5671 1.90302C29.9989 0.0108245 24.9723 -0.484259 20.1228 0.480372C15.2732 1.445 10.8187 3.82602 7.32234 7.32233C3.82603 10.8186 1.44501 15.2732 0.480379 20.1227C-0.484251 24.9723 0.0108322 29.9989 1.90302 34.5671C3.79521 39.1352 6.99953 43.0397 11.1108 45.7867C15.222 48.5338 20.0555 50 25 50C31.6282 49.9928 37.9829 47.3566 42.6698 42.6698C47.3566 37.9829 49.9928 31.6282 50 25ZM19.7188 36.8896L12.2479 29.4188C11.6674 28.8384 11.207 28.1493 10.8928 27.391C10.5787 26.6326 10.417 25.8198 10.417 24.999C10.417 24.1781 10.5787 23.3653 10.8928 22.6069C11.207 21.8486 11.6674 21.1596 12.2479 20.5792L19.7188 13.1104L19.7708 13.0604C19.9658 12.8618 20.1985 12.7043 20.4553 12.5972C20.7121 12.49 20.9877 12.4354 21.266 12.4365C21.5442 12.4376 21.8194 12.4945 22.0754 12.6037C22.3313 12.7129 22.5627 12.8723 22.7561 13.0724C22.9494 13.2726 23.1006 13.5094 23.2009 13.7689C23.3012 14.0285 23.3485 14.3055 23.34 14.5836C23.3314 14.8618 23.2673 15.1354 23.1513 15.3883C23.0353 15.6412 22.8698 15.8683 22.6646 16.0563L15.8042 22.9167L37.5 22.9021C38.0525 22.9021 38.5825 23.1216 38.9732 23.5123C39.3639 23.903 39.5833 24.4329 39.5833 24.9854C39.5833 25.538 39.3639 26.0679 38.9732 26.4586C38.5825 26.8493 38.0525 27.0688 37.5 27.0688L15.8063 27.0833L22.6646 33.9438C22.8636 34.1359 23.0223 34.3658 23.1315 34.62C23.2407 34.8742 23.2981 35.1475 23.3005 35.4242C23.3029 35.7008 23.2502 35.9751 23.1455 36.2312C23.0407 36.4872 22.886 36.7198 22.6904 36.9154C22.4948 37.111 22.2622 37.2657 22.0062 37.3705C21.7501 37.4752 21.4758 37.5279 21.1992 37.5255C20.9226 37.5231 20.6492 37.4656 20.395 37.3565C20.1408 37.2473 19.9109 37.0886 19.7188 36.8896Z" fill="black"/>
</g>
<defs>
<clipPath id="clip0_58_1605">
<rect width="50" height="50" fill="white"/>
</clipPath>
</defs>
</svg>
