<svg width="40" height="34" viewBox="0 0 40 34" fill="none" xmlns="http://www.w3.org/2000/svg">
<path d="M25.5429 0.0125739C24.4571 0.107119 23.4286 0.721664 22.8571 1.61984C22.1143 2.84893 16.6286 11.9726 15.5429 12.8707C14.4571 13.7689 13.0286 14.1944 11.4286 14.1944V33.1034H31.4286C32.6286 33.1034 33.6571 32.4889 34.1143 31.638C34.1143 31.638 40 17.8816 40 16.558C40 15.2344 38.7429 14.1944 37.1429 14.1944H28.5714C26.9714 14.1944 25.7143 13.0126 25.7143 11.8307C25.7143 10.6489 27.9429 4.36166 28.4 3.13257C28.8571 1.90348 28.1143 0.579846 26.6286 0.154392C26.2286 0.0598466 25.9429 -0.0346988 25.5429 0.0125739ZM0 14.1944V33.1034H5.71429V14.1944H0Z" fill="current"/>
</svg>
