<?xml version="1.0" encoding="UTF-8"?>
<svg id="_layer_1" data-name="layer 1" xmlns="http://www.w3.org/2000/svg" viewBox="0 0 100.52 102.65">
  <defs>
    <style>
      .cls-1 {
        fill: #040000;
      }

      .cls-2 {
        fill: #386fb7;
      }
    </style>
  </defs>
  <path class="cls-1" d="M18.13,72.51c-5.1,0-9.4-1.75-12.89-5.24-3.49-3.59-5.24-7.88-5.24-12.89V18.13C0,13.12,1.75,8.88,5.24,5.38,8.83,1.8,13.12,0,18.13,0H54.38c-5.01,0-9.3,1.8-12.89,5.38-3.49,3.59-5.24,7.84-5.24,12.75V54.38c0,5.01,1.75,9.3,5.24,12.89,3.59,3.49,7.88,5.24,12.89,5.24H18.13Z"/>
  <path class="cls-2" d="M47.87,24.64c-1.7-1.79-2.55-3.97-2.55-6.51s.85-4.58,2.55-6.37c1.79-1.79,3.97-2.69,6.51-2.69s4.58,.9,6.37,2.69c1.79,1.8,2.69,3.92,2.69,6.37s-.9,4.72-2.69,6.51c-1.79,1.7-3.92,2.55-6.37,2.55s-4.72-.85-6.51-2.55Z"/>
  <path class="cls-2" d="M30.56,91.04c-1.7-1.79-2.55-3.97-2.55-6.51s.85-4.58,2.55-6.37c1.79-1.79,3.97-2.69,6.51-2.69s4.58,.9,6.37,2.69c1.79,1.8,2.69,3.92,2.69,6.37s-.9,4.72-2.69,6.51c-1.79,1.7-3.92,2.55-6.37,2.55s-4.72-.85-6.51-2.55Z"/>
  <path class="cls-1" d="M37.07,102.65c4.91,0,9.16-1.75,12.75-5.24,3.59-3.59,5.38-7.88,5.38-12.89V48.27c0-5,1.75-9.25,5.24-12.75,3.59-3.59,7.88-5.38,12.89-5.38h18.13c-5.01,0-9.3,1.8-12.89,5.38-3.49,3.59-5.24,7.84-5.24,12.75s1.75,9.3,5.24,12.89c3.59,3.49,7.88,5.24,12.89,5.24v18.13c0,5.1-1.79,9.4-5.38,12.89-3.59,3.49-7.84,5.24-12.75,5.24H37.07Z"/>
  <path class="cls-2" d="M84.94,54.79c-1.7-1.79-2.55-3.97-2.55-6.51s.85-4.58,2.55-6.37c1.79-1.79,3.97-2.69,6.51-2.69s4.58,.9,6.37,2.69c1.79,1.8,2.69,3.92,2.69,6.37s-.9,4.72-2.69,6.51c-1.79,1.7-3.92,2.55-6.37,2.55s-4.72-.85-6.51-2.55Z"/>
</svg>